HIERARCHY
ROOT SimulationBone
{
	OFFSET 0.000000 0.000000 0.000000
	CHANNELS 6 Xposition Yposition Zposition Zrotation Yrotation Xrotation 
	JOINT Hips
	{
		OFFSET 0.000000 0.000000 0.000000
		CHANNELS 6 Xposition Yposition Zposition Zrotation Yrotation Xrotation 
		JOINT RightUpLeg
		{
			OFFSET 0.103457 1.857818 10.548502
			CHANNELS 3 Zrotation Yrotation Xrotation
			JOINT RightLeg
			{
				OFFSET 43.500000 -0.000011 -0.000004
				CHANNELS 3 Zrotation Yrotation Xrotation
				JOINT RightFoot
				{
					OFFSET 42.372192 -0.000004 -0.000008
					CHANNELS 3 Zrotation Yrotation Xrotation
					JOINT RightToe
					{
						OFFSET 17.300014 0.000006 0.000001
						CHANNELS 3 Zrotation Yrotation Xrotation
						End Site
						{
							OFFSET 0.000000 0.000000 0.000000
						}
					}
				}
			}
		}
		JOINT LeftUpLeg
		{
			OFFSET 0.103457 1.857817 -10.548505
			CHANNELS 3 Zrotation Yrotation Xrotation
			JOINT LeftLeg
			{
				OFFSET 43.500046 -0.000004 0.000011
				CHANNELS 3 Zrotation Yrotation Xrotation
				JOINT LeftFoot
				{
					OFFSET 42.372257 0.000000 0.000015
					CHANNELS 3 Zrotation Yrotation Xrotation
					JOINT LeftToe
					{
						OFFSET 17.300003 -0.000000 0.000002
						CHANNELS 3 Zrotation Yrotation Xrotation
						End Site
						{
							OFFSET 0.000000 0.000000 0.000000
						}
					}
				}
			}
		}
		JOINT Spine
		{
			OFFSET 6.901961 -2.603721 -0.000001
			CHANNELS 3 Zrotation Yrotation Xrotation
			JOINT Spine1
			{
				OFFSET 12.588108 0.000002 -0.000001
				CHANNELS 3 Zrotation Yrotation Xrotation
				JOINT Spine2
				{
					OFFSET 12.343199 -0.000020 0.000006
					CHANNELS 3 Zrotation Yrotation Xrotation
					JOINT Neck
					{
						OFFSET 25.832905 0.000017 0.000000
						CHANNELS 3 Zrotation Yrotation Xrotation
						JOINT Head
						{
							OFFSET 11.766604 -0.000006 0.000004
							CHANNELS 3 Zrotation Yrotation Xrotation
							End Site
							{
								OFFSET 0.000000 0.000000 0.000000
							}
						}
					}
					JOINT RightShoulder
					{
						OFFSET 19.745903 -1.480350 6.000100
						CHANNELS 3 Zrotation Yrotation Xrotation
						JOINT RightArm
						{
							OFFSET 11.284130 -0.000016 -0.000016
							CHANNELS 3 Zrotation Yrotation Xrotation
							JOINT RightForeArm
							{
								OFFSET 33.000046 0.000004 0.000031
								CHANNELS 3 Zrotation Yrotation Xrotation
								JOINT RightHand
								{
									OFFSET 25.199999 0.000027 0.000001
									CHANNELS 3 Zrotation Yrotation Xrotation
									End Site
									{
										OFFSET 0.000000 0.000000 0.000000
									}
								}
							}
						}
					}
					JOINT LeftShoulder
					{
						OFFSET 19.746094 -1.480375 -6.000080
						CHANNELS 3 Zrotation Yrotation Xrotation
						JOINT LeftArm
						{
							OFFSET 11.284131 -0.000016 -0.000017
							CHANNELS 3 Zrotation Yrotation Xrotation
							JOINT LeftForeArm
							{
								OFFSET 33.000095 0.000009 0.000020
								CHANNELS 3 Zrotation Yrotation Xrotation
								JOINT LeftHand
								{
									OFFSET 25.199789 0.000132 0.000423
									CHANNELS 3 Zrotation Yrotation Xrotation
									End Site
									{
										OFFSET 0.000000 0.000000 0.000000
									}
								}
							}
						}
					}
				}
			}
		}
	}
}
MOTION
Frames: 6
Frame Time: 0.016667
131.922517 0.000000 -545.455265 0.000000 234.728126 0.000000 -7.309367 87.564049 5.504466 81.677534 12.351141 -175.472623 -177.893001 -0.234603 -179.657690 -26.905861 -3.861826 -0.098368 81.849585 3.849883 15.763771 21.454558 0.003110 0.000014 138.812092 -4.184901 175.960385 -66.997086 1.539005 6.730480 73.796416 -3.673324 4.106375 21.454555 -0.003087 0.000001 9.559824 1.023975 -4.394261 9.018121 2.387253 -8.696971 8.703737 2.334755 -8.711075 3.018090 18.199966 17.589450 -18.217098 -25.349925 30.370346 178.371278 -77.058360 0.189875 -8.862701 60.402892 17.769805 -105.375700 0.032529 3.031584 3.143828 -1.987723 22.979278 -151.975832 74.626889 30.165047 40.243842 -48.390667 -51.809197 -97.447428 3.871151 -2.906868 8.610771 2.841766 -68.352496 
130.267905 0.000000 -543.124311 0.000000 235.832521 0.000000 -7.635227 88.313619 5.420471 80.808786 12.943002 -175.631519 -177.521718 -1.497903 179.406680 -27.008568 -3.414581 0.963305 78.423962 3.043503 13.609174 21.454557 0.003114 0.000016 138.561719 -4.732938 176.205039 -60.116537 2.026760 5.830937 74.411622 -2.817291 4.941363 21.454553 -0.003089 0.000001 9.570864 1.344504 -4.449546 9.015718 3.031503 -8.783559 8.701232 2.978473 -8.801510 1.888009 19.135604 17.465585 -17.609952 -26.174248 30.684490 179.088338 -77.218736 -0.544369 -7.430368 60.795377 19.978206 -105.968390 0.145131 3.049768 2.434674 -2.657186 22.971498 -152.377172 74.352202 29.761933 40.794951 -48.063153 -51.173967 -97.629537 3.705085 -2.903338 7.745297 3.141333 -63.703714 
128.672132 0.000000 -540.788658 0.000000 236.850525 0.000000 -7.884344 88.815247 5.303553 80.119969 13.191556 -175.916571 -177.598169 -2.067403 178.803957 -28.478314 -2.570543 1.566955 75.957146 2.127596 10.865596 21.454557 0.003116 0.000019 138.791629 -5.061501 176.436108 -53.470586 2.276612 4.793783 75.309788 -1.878215 5.760249 21.454551 -0.003092 0.000001 9.602933 1.582548 -4.431784 9.063487 3.507233 -8.729723 8.748780 3.454510 -8.750528 0.884974 19.838286 17.263293 -17.124094 -26.947469 30.890629 -179.982752 -77.204355 -1.491254 -6.051602 60.911304 21.964006 -106.257498 0.162134 3.061481 2.005345 -2.987187 24.429090 -153.229118 74.039376 28.897944 40.655368 -47.921340 -50.029273 -97.774567 3.593121 -2.901957 6.784375 3.667580 -61.597363 
127.134257 0.000000 -538.458889 0.000000 237.781131 0.000000 -8.043857 89.042390 5.166142 79.667375 13.196482 -176.234550 -178.070589 -2.003679 178.840313 -31.283694 -1.400956 1.543746 74.164717 1.359859 7.798479 21.454555 0.003111 0.000020 139.446158 -5.255562 176.817304 -47.410438 2.243745 3.909818 75.973482 -1.182739 6.076418 21.454550 -0.003090 0.000000 9.657283 1.755921 -4.354633 9.162818 3.851043 -8.560978 8.847820 3.799321 -8.583858 0.163250 20.225941 17.003664 -16.828702 -27.607582 30.965083 -178.919579 -77.052254 -2.573048 -4.692445 60.824116 23.687808 -106.174942 0.097485 3.062482 1.891283 -2.986008 26.499104 -154.339515 73.725327 27.767866 39.769495 -47.924904 -48.464130 -97.887171 3.544332 -2.903538 5.677575 4.377686 -61.488416 
125.649242 0.000000 -536.143447 0.000000 238.625349 0.000000 -8.106071 89.018600 5.017003 79.501172 13.017519 -176.512160 -178.874731 -1.452397 179.507330 -35.291528 -0.196150 1.088972 72.558779 0.905837 5.125318 21.454555 0.003105 0.000018 140.528272 -5.334392 177.523146 -42.333973 2.086110 3.179108 76.209214 -0.443194 6.902204 21.454550 -0.003089 0.000000 9.734847 1.873044 -4.226420 9.314858 4.080167 -8.293154 8.999527 4.030042 -8.317432 -0.151305 20.240764 16.693530 -16.759158 -28.081506 30.863640 -177.810506 -76.815786 -3.701096 -3.379908 60.599601 25.116794 -105.679712 -0.027486 3.049179 2.118743 -2.700588 28.334120 -155.487123 73.471152 26.597047 38.187272 -48.049338 -46.570022 -97.957739 3.547965 -2.906930 4.443785 5.193292 -62.468684 
124.211082 0.000000 -533.846848 0.000000 239.386078 0.000000 -8.074017 88.763992 4.870917 79.662408 12.721340 -176.696462 -179.933024 -0.602228 -179.345166 -40.349776 0.754479 0.490790 70.838807 0.845649 3.503781 21.454555 0.003105 0.000015 142.031341 -5.333987 178.672842 -38.634224 1.992849 2.619759 76.055380 0.539330 8.943532 21.454551 -0.003096 0.000001 9.836874 1.943826 -4.050098 9.521223 4.214279 -7.931403 9.205531 4.166315 -7.956517 0.028558 19.842519 16.329610 -16.929228 -28.300731 30.539749 -176.747931 -76.547542 -4.782164 -2.137557 60.298476 26.243007 -104.741401 -0.198179 3.018944 2.679428 -2.199599 29.263140 -156.495819 73.332895 25.565611 35.989029 -48.259076 -44.420897 -97.969130 3.585604 -2.910055 3.157799 6.031193 -63.538342 
